PathFileType	4	(X/Y/Z)	/Users/itak/Documents/Research/Walk-IL/dataset/trc/00475_00167.trc
DataRate	CameraRate	NumFrames	NumMarkers	Units	OrigDataRate	OrigDataStartFrame	OrigNumFrames
100.000000	100.000000	4	53	mm	100.000000	271	543
Frame#	Time	RPSI			LPSI			L3			STRN			T10			C7			CLAV			RBAK			LBAK			LSHO			LUPA			LAEL			LAOL			LWPS			LFRA			LIFD			LHPS			LHTS			RSHO			RUPA			RAEL			RAOL			RWTS			RWPS			RFRA			RIFD			RHTS			RHPS			RBHD			LFHD			RFHD			LBHD			LHIP			RHIP			RASI			LASI			LKNE			LTHI			LANK			LTIP			LTOE			LMT1			LMT5			LHEE			RKNE			RTHI			RANK			RTIP			RTOE			RMT1			RMT5			RHEE			LWTS			
		X1	Y1	Z1	X2	Y2	Z2	X3	Y3	Z3	X4	Y4	Z4	X5	Y5	Z5	X6	Y6	Z6	X7	Y7	Z7	X8	Y8	Z8	X9	Y9	Z9	X10	Y10	Z10	X11	Y11	Z11	X12	Y12	Z12	X13	Y13	Z13	X14	Y14	Z14	X15	Y15	Z15	X16	Y16	Z16	X17	Y17	Z17	X18	Y18	Z18	X19	Y19	Z19	X20	Y20	Z20	X21	Y21	Z21	X22	Y22	Z22	X23	Y23	Z23	X24	Y24	Z24	X25	Y25	Z25	X26	Y26	Z26	X27	Y27	Z27	X28	Y28	Z28	X29	Y29	Z29	X30	Y30	Z30	X31	Y31	Z31	X32	Y32	Z32	X33	Y33	Z33	X34	Y34	Z34	X35	Y35	Z35	X36	Y36	Z36	X37	Y37	Z37	X38	Y38	Z38	X39	Y39	Z39	X40	Y40	Z40	X41	Y41	Z41	X42	Y42	Z42	X43	Y43	Z43	X44	Y44	Z44	X45	Y45	Z45	X46	Y46	Z46	X47	Y47	Z47	X48	Y48	Z48	X49	Y49	Z49	X50	Y50	Z50	X51	Y51	Z51	X52	Y52	Z52	X53	Y53	Z53	

272	2.71	93.18810272216797	944.9774780273438	-149.2669372558594	20.11213493347168	906.6915893554688	-266.7687683105469	71.57480621337891	1033.28955078125	-206.3577423095703	226.3933258056641	1224.759155273438	-440.3023071289062	50.88996124267578	1157.052856445312	-203.3052978515625	88.36725616455078	1423.614135742188	-271.6148681640625	182.9685363769531	1334.991577148438	-427.7893981933594	143.6868133544922	1320.297607421875	-158.9968109130859	-8.183549880981445	1362.3154296875	-293.9678039550781	-21.82481575012207	1378.186767578125	-423.4657592773438	-107.0813522338867	1253.43994140625	-455.1756591796875	-108.6613082885742	1032.388427734375	-465.1710205078125	-99.33741760253906	1027.470825195312	-362.4356384277344	-41.81400299072266	827.181640625	-494.3644714355469	-82.26783752441406	947.7361450195312	-485.4729614257812	57.10925674438477	706.8384399414062	-523.4251708984375	-20.98196220397949	755.5953979492188	-505.89453125	43.37021255493164	780.8723754882812	-527.6197509765625	259.898681640625	1414.15966796875	-245.4470672607422	327.3343811035156	1365.006958007812	-193.5921020507812	440.1109619140625	1090.779663085938	-210.2877349853516	396.4983520507812	1056.325317382812	-170.8657379150391	424.6836242675781	924.04052734375	-376.8393859863281	485.5840454101562	898.1297607421875	-318.4132385253906	458.0384521484375	1036.904907226562	-230.5245513916016	447.8314208984375	776.9011840820312	-423.5899047851562	444.3442077636719	837.226806640625	-419.4579772949219	490.6231689453125	819.1203002929688	-358.7817687988281	201.9678649902344	1631.707641601562	-370.9357604980469	47.66253280639648	1598.891357421875	-503.9112854003906	174.4680480957031	1626.335205078125	-506.0674743652344	28.75490188598633	1600.928955078125	-351.7731018066406	105.0790939331055	798.6489868164062	-431.1327209472656	280.4904479980469	888.096923828125	-79.65164947509766	327.887939453125	917.4342651367188	-197.4008483886719	209.4263610839844	866.916748046875	-413.1373901367188	327.6381225585938	434.1914672851562	-416.7103881835938	263.3343811035156	573.4139404296875	-448.8170471191406	299.3483276367188	33.1550178527832	-304.5844421386719	336.6004638671875	278.6376953125	-398.7718505859375	539.5222778320312	36.67537689208984	-355.1975708007812	485.7015075683594	50.37718963623047	-298.7483215332031	424.7283325195312	38.79145812988281	-394.844970703125	292.7739868164062	47.2137336730957	-228.0074615478516	370.2726135253906	521.1033935546875	-11.58748626708984	348.0277404785156	768.306884765625	-67.02956390380859	95.96337127685547	246.6102447509766	202.8675842285156	307.0961303710938	411.9010009765625	65.68117523193359	182.6636810302734	56.39035797119141	145.6614227294922	146.6588134765625	112.3433837890625	112.5988845825195	172.475830078125	137.8856506347656	212.9164276123047	39.52866744995117	289.5721435546875	170.2327728271484	23.0313549041748	861.5381469726562	-503.8881225585938	
273	2.72	106.142692565918	947.3316040039062	-147.9783172607422	26.98895454406738	908.8255615234375	-261.6115417480469	82.02215576171875	1035.518432617188	-204.4782562255859	225.9918518066406	1225.676513671875	-446.1531066894531	61.71468353271484	1159.323120117188	-201.1295013427734	96.372802734375	1425.55517578125	-272.0975646972656	183.7928924560547	1336.189575195312	-432.0000915527344	156.4994964599609	1322.497802734375	-161.8134765625	-1.2923903465271	1364.4814453125	-289.8629455566406	-20.60415458679199	1379.85546875	-418.7413330078125	-107.0324478149414	1254.859741210938	-447.0142211914062	-107.4955978393555	1033.528076171875	-456.8799743652344	-94.66207122802734	1028.3232421875	-354.4254760742188	-37.15095520019531	829.8282470703125	-489.6702575683594	-80.04837036132812	949.5763549804688	-478.5552978515625	64.06459045410156	712.1685791015625	-522.620849609375	-14.76910400390625	758.7575073242188	-502.2665405273438	48.03162002563477	785.8994750976562	-526.049560546875	269.02490234375	1415.774536132812	-253.4675903320312	338.2302856445312	1366.513549804688	-203.9970855712891	448.0003967285156	1091.11865234375	-222.4587554931641	405.4800109863281	1057.287719726562	-181.3770904541016	425.3895568847656	923.3128662109375	-387.3663330078125	488.2617492675781	897.5706787109375	-331.0613098144531	464.9056396484375	1037.003295898438	-242.9598083496094	445.7080993652344	775.8626098632812	-434.0375671386719	443.0205383300781	836.3728637695312	-430.284912109375	491.2320251464844	818.2620239257812	-371.0578308105469	205.5978240966797	1633.335815429688	-376.4031982421875	45.8204460144043	1600.478637695312	-502.5714111328125	172.3595581054688	1627.9150390625	-510.1669311523438	33.37917327880859	1602.662231445312	-349.6746520996094	103.9109878540039	799.1481323242188	-429.4198303222656	297.2593994140625	890.88916015625	-87.95656585693359	338.0805358886719	919.2091064453125	-208.3951568603516	208.5599517822266	867.3865966796875	-417.6206970214844	326.2807312011719	433.7433166503906	-418.594482421875	260.6716918945312	572.5956420898438	-450.0370483398438	299.4348754882812	33.22776794433594	-304.4563903808594	335.5668640136719	278.32080078125	-399.9059448242188	539.520751953125	36.70853805541992	-355.8309020996094	485.61376953125	50.61916732788086	-299.2579650878906	424.4868469238281	38.60501861572266	-395.2684936523438	293.1102600097656	47.61155700683594	-227.8687591552734	392.5997314453125	524.8999633789062	-22.77828216552734	365.9222717285156	771.6632080078125	-78.10758209228516	135.0920562744141	250.1521911621094	208.4656066894531	335.3421325683594	415.528564453125	58.37556076049805	222.7731475830078	60.3455696105957	151.6264190673828	182.9723510742188	114.1992797851562	119.0410385131836	214.6858367919922	143.6529235839844	216.6492309570312	75.81321716308594	291.105712890625	178.5744476318359	26.44719314575195	865.9888916015625	-501.3894653320312	
274	2.73	118.985710144043	949.6140747070312	-147.0127563476562	33.94291687011719	910.8814086914062	-256.3822631835938	92.39641571044922	1037.550048828125	-202.5487365722656	225.1188507080078	1226.389526367188	-451.7178955078125	72.67083740234375	1161.492431640625	-199.1029357910156	104.3529205322266	1427.368286132812	-272.6213989257812	184.2906951904297	1337.216186523438	-435.9617919921875	169.1857299804688	1324.545654296875	-164.8516693115234	5.729611396789551	1366.597900390625	-285.6163330078125	-19.31290626525879	1381.441650390625	-413.5946350097656	-106.7084197998047	1256.160888671875	-438.3595886230469	-105.9313812255859	1034.593017578125	-448.3015747070312	-89.69256591796875	1029.099365234375	-346.2489318847656	-32.69299697875977	832.4063720703125	-484.8245544433594	-77.6134033203125	951.3465576171875	-471.40283203125	70.26427459716797	717.273193359375	-521.736572265625	-8.985940933227539	761.874755859375	-498.5762939453125	52.21887969970703	790.6717529296875	-524.2711181640625	277.7779235839844	1417.194580078125	-261.634765625	348.6585998535156	1367.820434570312	-214.6073455810547	455.4983825683594	1091.308349609375	-234.3347930908203	414.0344543457031	1058.103271484375	-191.7293701171875	426.4049987792969	922.7297973632812	-397.4931945800781	490.7066650390625	896.851318359375	-342.9897766113281	471.4090270996094	1036.95263671875	-254.9862670898438	444.2237854003906	775.1188354492188	-444.2549438476562	442.2609252929688	835.7708740234375	-440.72900390625	491.8440246582031	817.38330078125	-382.7073669433594	208.8344268798828	1634.901489257812	-381.7875671386719	43.81930541992188	1601.905395507812	-500.8417053222656	169.8706359863281	1629.370971679688	-513.9146118164062	37.89941787719727	1604.2744140625	-347.44873046875	102.5344772338867	799.4009399414062	-427.0410766601562	313.3627624511719	893.5242309570312	-96.73450469970703	347.582275390625	920.8348388671875	-219.5125732421875	207.2599792480469	867.5755615234375	-421.6213989257812	324.6737365722656	433.2966003417969	-420.0707702636719	257.6769104003906	571.6054077148438	-450.7411804199219	299.6513977050781	33.30996704101562	-304.1156005859375	334.5134887695312	278.0398864746094	-400.7677307128906	539.523681640625	36.79832077026367	-356.6871643066406	485.6271362304688	50.85215377807617	-299.84375	424.2476501464844	38.43457794189453	-395.6543884277344	293.7129821777344	48.0015869140625	-227.4887237548828	414.2741088867188	528.5571899414062	-34.95561981201172	383.0422973632812	774.859619140625	-89.75942230224609	175.0697784423828	253.9447326660156	212.8928680419922	363.3535766601562	419.1163635253906	49.85104751586914	262.0873107910156	64.47332763671875	154.7248077392578	218.8628082275391	116.5523910522461	123.570442199707	256.7998962402344	149.1641082763672	217.9044799804688	113.3150100708008	293.3247375488281	186.4442901611328	29.70616149902344	870.1385498046875	-498.5441284179688	
275	2.74	131.7562408447266	951.8446655273438	-146.36083984375	41.00276947021484	912.8990478515625	-251.0545043945312	102.7295227050781	1039.425048828125	-200.6488800048828	223.7858428955078	1226.938232421875	-456.9702758789062	83.72730255126953	1163.572265625	-197.2469787597656	112.2913818359375	1429.078247070312	-273.1881103515625	184.4446105957031	1338.094116210938	-439.6477966308594	181.7142181396484	1326.434814453125	-168.1322021484375	12.89279651641846	1368.674438476562	-281.2649841308594	-17.93448257446289	1382.974975585938	-408.0367126464844	-106.1131591796875	1257.383056640625	-429.2082214355469	-103.9858322143555	1035.604125976562	-439.4421997070312	-84.40898895263672	1029.843994140625	-337.9060974121094	-28.45495796203613	834.9122924804688	-479.7904357910156	-74.98690032958984	953.0438232421875	-464.0024108886719	75.70966339111328	722.1396484375	-520.7797241210938	-3.653020858764648	764.9281005859375	-494.7683715820312	55.91650009155273	795.1729736328125	-522.2734985351562	286.1193542480469	1418.418334960938	-269.9322509765625	358.5780334472656	1368.928833007812	-225.4146423339844	462.6675415039062	1091.381958007812	-245.9557342529297	422.2178344726562	1058.804077148438	-201.9467010498047	427.7373962402344	922.2491455078125	-407.2736206054688	492.998046875	895.9730834960938	-354.2353210449219	477.6034240722656	1036.781982421875	-266.6535339355469	443.29931640625	774.5875854492188	-454.2779541015625	442.0238037109375	835.3472900390625	-450.8472290039062	492.4991455078125	816.4505615234375	-393.7675476074219	211.7023010253906	1636.40087890625	-387.0832214355469	41.70171356201172	1603.19189453125	-498.7438049316406	167.0521697998047	1630.696411132812	-517.3118896484375	42.35113525390625	1605.786987304688	-345.1466979980469	101.0096206665039	799.4766235351562	-423.9630432128906	328.799072265625	896.0015258789062	-105.9521408081055	356.3941040039062	922.335693359375	-230.7075958251953	205.5754547119141	867.5597534179688	-425.045166015625	322.7801208496094	432.8373107910156	-421.125	254.4297027587891	570.5107421875	-450.889892578125	300.0606994628906	33.39966201782227	-303.4720458984375	333.39990234375	277.7821960449219	-401.3379821777344	539.5266723632812	36.96266555786133	-357.8218383789062	485.792236328125	51.08285140991211	-300.5410461425781	424.004638671875	38.28070831298828	-396.0032043457031	294.6963500976562	48.39728927612305	-226.7911682128906	435.2387084960938	532.0595703125	-48.15191268920898	399.3878173828125	777.874755859375	-101.9781875610352	215.7338256835938	258.0907897949219	215.9873657226562	390.9951171875	422.6726989746094	40.03277969360352	300.4309387207031	68.81790924072266	154.9908599853516	254.2085266113281	119.5000762939453	126.1660232543945	298.6243896484375	154.4823150634766	216.6971893310547	151.8878479003906	296.3426208496094	193.6034088134766	32.81054306030273	873.9752807617188	-495.3280029296875	
